<?xml version="1.0" encoding="utf-8"?>
<!-- Generator: Adobe Illustrator 22.1.0, SVG Export Plug-In . SVG Version: 6.00 Build 0)  -->
<svg version="1.1" id="Layer_1" xmlns="http://www.w3.org/2000/svg" xmlns:xlink="http://www.w3.org/1999/xlink" x="0px" y="0px"
	 viewBox="0 0 61.4 34" style="enable-background:new 0 0 61.4 34;" xml:space="preserve">
<style type="text/css">
	.st0{fill:#FFFFFF;}
</style>
<title>global-header-logo</title>
<desc>Created using Figma</desc>
<g>
	<path class="st0" d="M24.7,21.4c0,0.8-0.3,1.5-0.9,1.9c-0.6,0.4-1.5,0.7-2.6,0.7c-1.1,0-2-0.2-2.7-0.5v-1.6c1,0.5,1.9,0.7,2.8,0.7
		c1.1,0,1.7-0.3,1.7-1c0-0.2-0.1-0.4-0.2-0.5c-0.1-0.1-0.3-0.3-0.6-0.4c-0.3-0.2-0.7-0.3-1.2-0.5c-1-0.4-1.6-0.8-2-1.1
		c-0.3-0.4-0.5-0.9-0.5-1.5c0-0.7,0.3-1.3,0.9-1.7c0.6-0.4,1.4-0.6,2.4-0.6c1,0,1.9,0.2,2.8,0.6l-0.6,1.4c-0.9-0.4-1.7-0.6-2.3-0.6
		c-1,0-1.4,0.3-1.4,0.8c0,0.3,0.1,0.5,0.4,0.7c0.2,0.2,0.8,0.4,1.6,0.8c0.7,0.3,1.2,0.5,1.5,0.7c0.3,0.2,0.6,0.5,0.7,0.8
		C24.6,20.6,24.7,21,24.7,21.4z"/>
	<path class="st0" d="M28.1,13c0-0.3,0.1-0.6,0.3-0.7c0.2-0.2,0.4-0.3,0.8-0.3c0.3,0,0.6,0.1,0.7,0.3c0.2,0.2,0.3,0.4,0.3,0.7
		c0,0.3-0.1,0.6-0.3,0.7c-0.2,0.2-0.4,0.3-0.7,0.3c-0.3,0-0.6-0.1-0.8-0.3C28.2,13.6,28.1,13.3,28.1,13z M30,23.8h-1.8v-8.5H30V23.8
		z"/>
	<path class="st0" d="M37,23.9c-1.1,0-1.9-0.4-2.5-1.2c-0.6-0.8-0.9-1.8-0.9-3.2c0-1.4,0.3-2.5,0.9-3.3c0.6-0.8,1.4-1.2,2.5-1.2
		c1.1,0,2,0.4,2.6,1.2h0.1c-0.1-0.6-0.1-1.1-0.1-1.4v-3.1h1.8v12H40l-0.3-1.1h-0.1C39,23.5,38.1,23.9,37,23.9z M37.5,22.5
		c0.7,0,1.3-0.2,1.6-0.6c0.3-0.4,0.5-1.1,0.5-2v-0.3c0-1.1-0.2-1.8-0.5-2.3c-0.3-0.5-0.9-0.7-1.6-0.7c-0.6,0-1.1,0.3-1.5,0.8
		c-0.3,0.5-0.5,1.3-0.5,2.2c0,0.9,0.2,1.7,0.5,2.2C36.3,22.2,36.8,22.5,37.5,22.5z"/>
	<path class="st0" d="M49.3,23.9c-1.3,0-2.4-0.4-3.1-1.2C45.4,22,45,21,45,19.6c0-1.4,0.3-2.5,1-3.3c0.7-0.8,1.6-1.2,2.9-1.2
		c1.1,0,2,0.3,2.7,1c0.7,0.7,1,1.6,1,2.8v1h-5.7c0,0.8,0.2,1.5,0.7,1.9c0.4,0.4,1,0.7,1.8,0.7c0.5,0,1,0,1.4-0.1
		c0.4-0.1,0.9-0.3,1.4-0.5v1.5c-0.4,0.2-0.9,0.4-1.3,0.4C50.4,23.9,49.8,23.9,49.3,23.9z M48.9,16.5c-0.6,0-1,0.2-1.4,0.5
		c-0.3,0.4-0.6,0.9-0.6,1.6h3.9c0-0.7-0.2-1.2-0.5-1.6C50,16.7,49.5,16.5,48.9,16.5z"/>
	<path class="st0" d="M60.5,15.1c0.4,0,0.7,0,0.9,0.1l-0.2,1.7c-0.3-0.1-0.5-0.1-0.8-0.1c-0.7,0-1.3,0.2-1.8,0.7
		C58.2,18,58,18.6,58,19.3v4.4h-1.8v-8.5h1.4l0.2,1.5H58c0.3-0.5,0.7-0.9,1.1-1.2C59.5,15.3,60,15.1,60.5,15.1z"/>
</g>
<g>
	<path class="st0" d="M5.7,0.6C5.7,1,5.4,1.3,5,1.3C4.7,1.3,4.4,1,4.4,0.6S4.7,0,5,0C5.4,0,5.7,0.3,5.7,0.6z"/>
	<path class="st0" d="M5.4,6C5.4,6.5,5,7,4.5,7C4,7,3.6,6.5,3.6,6c0-0.5,0.4-0.9,0.9-0.9C5,5.1,5.4,5.5,5.4,6z"/>
	<path class="st0" d="M7.5,3.6c0,0.4-0.3,0.7-0.7,0.7C6.3,4.3,6,4,6,3.6c0-0.4,0.3-0.7,0.7-0.7C7.1,2.8,7.5,3.2,7.5,3.6z"/>
	<g>
		<path class="st0" d="M8.3,8.7c0-0.2-0.2-0.4-0.5-0.4H3c-0.3,0-0.5,0.2-0.5,0.4v1.4h5.8V8.7z"/>
		<path class="st0" d="M9.3,11.5l-2.3,0L2.7,25.7h-1V13.2h2.5c0.5,0,0.9-0.4,0.9-0.9c0-0.5-0.4-0.9-0.9-0.9H1.7
			c-0.9,0-1.7,0.8-1.7,1.7v12.6c0,0.9,0.8,1.7,1.7,1.7h2.1L8,13.2h1.2v12.5H6.4c-0.5,0-0.9,0.4-0.9,0.9c0,0.5,0.4,0.9,0.9,0.9h2.8
			c0.9,0,1.7-0.8,1.7-1.7V13.2C10.9,12.2,10.2,11.5,9.3,11.5z"/>
	</g>
</g>
</svg>
