<?xml version="1.0" encoding="utf-8"?>
<!-- Generator: Adobe Illustrator 22.1.0, SVG Export Plug-In . SVG Version: 6.00 Build 0)  -->
<svg version="1.1" id="Layer_1" xmlns="http://www.w3.org/2000/svg" xmlns:xlink="http://www.w3.org/1999/xlink" x="0px" y="0px"
	 viewBox="0 0 10.9 35.8" style="enable-background:new 0 0 10.9 35.8;" xml:space="preserve">
<style type="text/css">
	.st0{fill:#FFFFFF;}
</style>
<title>global-header-logo</title>
<desc>Created using Figma</desc>
<g>
	<path class="st0" d="M5.7,0.6C5.7,1,5.4,1.3,5,1.3C4.7,1.3,4.4,1,4.4,0.6S4.7,0,5,0C5.4,0,5.7,0.3,5.7,0.6z"/>
	<path class="st0" d="M5.4,6c0,0.5-0.4,1-0.9,1S3.6,6.5,3.6,6S4,5.1,4.5,5.1S5.4,5.5,5.4,6z"/>
	<path class="st0" d="M7.5,3.6c0,0.4-0.3,0.7-0.7,0.7C6.3,4.3,6,4,6,3.6s0.3-0.7,0.7-0.7C7.1,2.8,7.5,3.2,7.5,3.6z"/>
	<g>
		<path class="st0" d="M8.3,8.7c0-0.2-0.2-0.4-0.5-0.4H3c-0.3,0-0.5,0.2-0.5,0.4v1.4h5.8V8.7z"/>
		<path class="st0" d="M9.3,11.5H7L2.7,25.7h-1V13.2h2.5c0.5,0,0.9-0.4,0.9-0.9s-0.4-0.9-0.9-0.9H1.7c-0.9,0-1.7,0.8-1.7,1.7v12.6
			c0,0.9,0.8,1.7,1.7,1.7h2.1L8,13.2h1.2v12.5H6.4c-0.5,0-0.9,0.4-0.9,0.9s0.4,0.9,0.9,0.9h2.8c0.9,0,1.7-0.8,1.7-1.7V13.2
			C10.9,12.2,10.2,11.5,9.3,11.5z"/>
	</g>
</g>
</svg>
